# xmcd CD database file
#
# Track frame offsets:
#	150
#	16760
#	37127
#	54990
#	72192
#
# Disc length: 1266 seconds
#
# Revision: 0
# Processed by: cddbd v1.5PL3 Copyright (c) Steve Scherf et al.
# Submitted via: CDex 1.50beta8
#
DISCID=3904f005
DTITLE=JOKE VOX - 天然狂時代
DYEAR=1997
DGENRE=Pop
TTITLE0=ナチュラルハイ
TTITLE1=死ねない人々
TTITLE2=ハミングバード
TTITLE3=アンドロイドNo.5
TTITLE4=蓄音機と無人島
EXTD=YEAR: 1997
EXTT0=
EXTT1=
EXTT2=
EXTT3=
EXTT4=
PLAYORDER=
